<mxfile host="app.diagrams.net" modified="2024-03-12T09:01:44.089Z" agent="Mozilla/5.0 (Windows NT 10.0; Win64; x64) AppleWebKit/537.36 (KHTML, like Gecko) Chrome/122.0.0.0 Safari/537.36" etag="8oVLKnfPrVtzxZrCfmkh" version="24.0.5" type="github" pages="2">
  <diagram name="Search" id="1Z8MlafSayp5u_gYESE6">
    <mxGraphModel dx="1034" dy="446" grid="1" gridSize="10" guides="1" tooltips="1" connect="1" arrows="1" fold="1" page="1" pageScale="1" pageWidth="850" pageHeight="1100" math="0" shadow="0">
      <root>
        <mxCell id="0" />
        <mxCell id="1" parent="0" />
        <mxCell id="FWz6uTybGzVtUew7Glcn-1" value="" style="verticalLabelPosition=bottom;html=1;verticalAlign=top;align=center;strokeColor=none;fillColor=#00BEF2;shape=mxgraph.azure.user;" vertex="1" parent="1">
          <mxGeometry x="8" y="216" width="30" height="20" as="geometry" />
        </mxCell>
        <mxCell id="FWz6uTybGzVtUew7Glcn-2" value="" style="rounded=0;whiteSpace=wrap;html=1;" vertex="1" parent="1">
          <mxGeometry x="227" y="66" width="60" height="320" as="geometry" />
        </mxCell>
        <mxCell id="FWz6uTybGzVtUew7Glcn-3" value="" style="verticalLabelPosition=bottom;html=1;verticalAlign=top;align=center;strokeColor=none;fillColor=#00BEF2;shape=mxgraph.azure.website_generic;pointerEvents=1;" vertex="1" parent="1">
          <mxGeometry x="86" y="204.75" width="50" height="42.5" as="geometry" />
        </mxCell>
        <mxCell id="FWz6uTybGzVtUew7Glcn-4" value="" style="sketch=0;points=[[0,0,0],[0.25,0,0],[0.5,0,0],[0.75,0,0],[1,0,0],[0,1,0],[0.25,1,0],[0.5,1,0],[0.75,1,0],[1,1,0],[0,0.25,0],[0,0.5,0],[0,0.75,0],[1,0.25,0],[1,0.5,0],[1,0.75,0]];outlineConnect=0;fontColor=#232F3E;fillColor=#E7157B;strokeColor=#ffffff;dashed=0;verticalLabelPosition=bottom;verticalAlign=top;align=center;html=1;fontSize=12;fontStyle=0;aspect=fixed;shape=mxgraph.aws4.resourceIcon;resIcon=mxgraph.aws4.api_gateway;" vertex="1" parent="1">
          <mxGeometry x="238" y="197" width="38" height="38" as="geometry" />
        </mxCell>
        <mxCell id="FWz6uTybGzVtUew7Glcn-5" value="" style="endArrow=classic;html=1;rounded=0;" edge="1" parent="1">
          <mxGeometry width="50" height="50" relative="1" as="geometry">
            <mxPoint x="48" y="233.75" as="sourcePoint" />
            <mxPoint x="78" y="234" as="targetPoint" />
          </mxGeometry>
        </mxCell>
        <mxCell id="FWz6uTybGzVtUew7Glcn-6" value="" style="endArrow=classic;html=1;rounded=0;" edge="1" parent="1">
          <mxGeometry width="50" height="50" relative="1" as="geometry">
            <mxPoint x="108" y="198" as="sourcePoint" />
            <mxPoint x="220" y="148" as="targetPoint" />
            <Array as="points">
              <mxPoint x="108" y="148" />
            </Array>
          </mxGeometry>
        </mxCell>
        <mxCell id="FWz6uTybGzVtUew7Glcn-8" value="" style="endArrow=classic;html=1;rounded=0;entryX=0.5;entryY=1;entryDx=0;entryDy=0;" edge="1" parent="1" target="FWz6uTybGzVtUew7Glcn-9">
          <mxGeometry width="50" height="50" relative="1" as="geometry">
            <mxPoint x="160" y="148" as="sourcePoint" />
            <mxPoint x="200" y="98" as="targetPoint" />
          </mxGeometry>
        </mxCell>
        <mxCell id="FWz6uTybGzVtUew7Glcn-9" value="&lt;font style=&quot;font-size: 10px;&quot;&gt;IAM&lt;/font&gt;" style="rounded=0;whiteSpace=wrap;html=1;" vertex="1" parent="1">
          <mxGeometry x="140" y="66" width="40" height="40" as="geometry" />
        </mxCell>
        <mxCell id="FWz6uTybGzVtUew7Glcn-13" value="" style="ellipse;whiteSpace=wrap;html=1;aspect=fixed;" vertex="1" parent="1">
          <mxGeometry x="98" y="153" width="20" height="20" as="geometry" />
        </mxCell>
        <mxCell id="FWz6uTybGzVtUew7Glcn-14" value="&lt;font style=&quot;font-size: 10px;&quot;&gt;1&lt;/font&gt;" style="text;html=1;strokeColor=none;fillColor=none;align=center;verticalAlign=middle;whiteSpace=wrap;rounded=0;" vertex="1" parent="1">
          <mxGeometry x="93" y="153" width="30" height="20" as="geometry" />
        </mxCell>
        <mxCell id="FWz6uTybGzVtUew7Glcn-15" value="User logs into SkyPlus/LMS" style="text;html=1;strokeColor=none;fillColor=none;align=left;verticalAlign=top;whiteSpace=wrap;rounded=0;fontSize=8;" vertex="1" parent="1">
          <mxGeometry x="32.5" y="146.5" width="58.5" height="38.5" as="geometry" />
        </mxCell>
        <mxCell id="FWz6uTybGzVtUew7Glcn-16" value="" style="endArrow=classic;html=1;rounded=0;" edge="1" parent="1">
          <mxGeometry width="50" height="50" relative="1" as="geometry">
            <mxPoint x="132" y="257" as="sourcePoint" />
            <mxPoint x="215" y="278" as="targetPoint" />
            <Array as="points">
              <mxPoint x="132" y="278" />
            </Array>
          </mxGeometry>
        </mxCell>
        <mxCell id="FWz6uTybGzVtUew7Glcn-17" value="" style="ellipse;whiteSpace=wrap;html=1;aspect=fixed;" vertex="1" parent="1">
          <mxGeometry x="159" y="265" width="20" height="20" as="geometry" />
        </mxCell>
        <mxCell id="FWz6uTybGzVtUew7Glcn-18" value="&lt;font style=&quot;font-size: 10px;&quot;&gt;4&lt;/font&gt;" style="text;html=1;strokeColor=none;fillColor=none;align=center;verticalAlign=middle;whiteSpace=wrap;rounded=0;" vertex="1" parent="1">
          <mxGeometry x="154" y="265" width="30" height="20" as="geometry" />
        </mxCell>
        <mxCell id="FWz6uTybGzVtUew7Glcn-20" value="&lt;font style=&quot;font-size: 10px;&quot;&gt;LMS Services&lt;/font&gt;" style="rounded=0;whiteSpace=wrap;html=1;" vertex="1" parent="1">
          <mxGeometry x="396" y="94" width="99" height="68" as="geometry" />
        </mxCell>
        <mxCell id="FWz6uTybGzVtUew7Glcn-19" value="User chooses a flight to modify and provides O&amp;amp;D and date for search" style="text;html=1;strokeColor=none;fillColor=none;align=left;verticalAlign=top;whiteSpace=wrap;rounded=0;fontSize=8;" vertex="1" parent="1">
          <mxGeometry x="132.5" y="279.5" width="76.5" height="38.5" as="geometry" />
        </mxCell>
        <mxCell id="FWz6uTybGzVtUew7Glcn-21" value="&lt;font style=&quot;font-size: 10px;&quot;&gt;Skyplus Services&lt;/font&gt;" style="rounded=0;whiteSpace=wrap;html=1;" vertex="1" parent="1">
          <mxGeometry x="396" y="274" width="99" height="72" as="geometry" />
        </mxCell>
        <mxCell id="FWz6uTybGzVtUew7Glcn-22" value="" style="endArrow=classic;html=1;rounded=0;" edge="1" parent="1">
          <mxGeometry width="50" height="50" relative="1" as="geometry">
            <mxPoint x="299" y="142" as="sourcePoint" />
            <mxPoint x="387" y="142" as="targetPoint" />
          </mxGeometry>
        </mxCell>
        <mxCell id="FWz6uTybGzVtUew7Glcn-23" value="&lt;font style=&quot;font-size: 10px;&quot;&gt;1N API/Services&lt;/font&gt;" style="rounded=0;whiteSpace=wrap;html=1;" vertex="1" parent="1">
          <mxGeometry x="567" y="94" width="121" height="68" as="geometry" />
        </mxCell>
        <mxCell id="FWz6uTybGzVtUew7Glcn-24" value="" style="ellipse;whiteSpace=wrap;html=1;aspect=fixed;" vertex="1" parent="1">
          <mxGeometry x="329" y="134" width="20" height="20" as="geometry" />
        </mxCell>
        <mxCell id="FWz6uTybGzVtUew7Glcn-25" value="&lt;font style=&quot;font-size: 10px;&quot;&gt;2&lt;/font&gt;" style="text;html=1;strokeColor=none;fillColor=none;align=center;verticalAlign=middle;whiteSpace=wrap;rounded=0;" vertex="1" parent="1">
          <mxGeometry x="324" y="134" width="30" height="20" as="geometry" />
        </mxCell>
        <mxCell id="FWz6uTybGzVtUew7Glcn-26" value="getUserFQTV, Points,Tier, past and future travel, nominees and entitlements" style="text;html=1;strokeColor=none;fillColor=none;align=left;verticalAlign=top;whiteSpace=wrap;rounded=0;fontSize=8;" vertex="1" parent="1">
          <mxGeometry x="300" y="150" width="73.25" height="60" as="geometry" />
        </mxCell>
        <mxCell id="FWz6uTybGzVtUew7Glcn-27" value="getFlights,Fare and SSR in cash is called" style="text;html=1;strokeColor=none;fillColor=none;align=left;verticalAlign=top;whiteSpace=wrap;rounded=0;fontSize=8;" vertex="1" parent="1">
          <mxGeometry x="446.75" y="216" width="82.75" height="33" as="geometry" />
        </mxCell>
        <mxCell id="FWz6uTybGzVtUew7Glcn-28" value="" style="endArrow=classic;html=1;rounded=0;" edge="1" parent="1">
          <mxGeometry width="50" height="50" relative="1" as="geometry">
            <mxPoint x="295" y="304" as="sourcePoint" />
            <mxPoint x="383" y="304" as="targetPoint" />
          </mxGeometry>
        </mxCell>
        <mxCell id="FWz6uTybGzVtUew7Glcn-29" value="" style="ellipse;whiteSpace=wrap;html=1;aspect=fixed;" vertex="1" parent="1">
          <mxGeometry x="325" y="294" width="20" height="20" as="geometry" />
        </mxCell>
        <mxCell id="FWz6uTybGzVtUew7Glcn-30" value="&lt;font style=&quot;font-size: 10px;&quot;&gt;6&lt;/font&gt;" style="text;html=1;strokeColor=none;fillColor=none;align=center;verticalAlign=middle;whiteSpace=wrap;rounded=0;" vertex="1" parent="1">
          <mxGeometry x="320" y="294" width="30" height="20" as="geometry" />
        </mxCell>
        <mxCell id="FWz6uTybGzVtUew7Glcn-31" value="getFlights, Fare and disc prices for adds on is called" style="text;html=1;strokeColor=none;fillColor=none;align=left;verticalAlign=top;whiteSpace=wrap;rounded=0;fontSize=8;" vertex="1" parent="1">
          <mxGeometry x="289.38" y="267" width="109.25" height="18" as="geometry" />
        </mxCell>
        <mxCell id="FWz6uTybGzVtUew7Glcn-32" value="" style="endArrow=classic;html=1;rounded=0;" edge="1" parent="1">
          <mxGeometry width="50" height="50" relative="1" as="geometry">
            <mxPoint x="440" y="268" as="sourcePoint" />
            <mxPoint x="604" y="163" as="targetPoint" />
            <Array as="points">
              <mxPoint x="440" y="249" />
              <mxPoint x="484" y="249" />
              <mxPoint x="604" y="249" />
              <mxPoint x="604" y="190" />
            </Array>
          </mxGeometry>
        </mxCell>
        <mxCell id="FWz6uTybGzVtUew7Glcn-33" value="" style="ellipse;whiteSpace=wrap;html=1;aspect=fixed;" vertex="1" parent="1">
          <mxGeometry x="542" y="241" width="20" height="20" as="geometry" />
        </mxCell>
        <mxCell id="FWz6uTybGzVtUew7Glcn-34" value="&lt;font style=&quot;font-size: 10px;&quot;&gt;7&lt;/font&gt;" style="text;html=1;strokeColor=none;fillColor=none;align=center;verticalAlign=middle;whiteSpace=wrap;rounded=0;" vertex="1" parent="1">
          <mxGeometry x="537" y="240" width="30" height="20" as="geometry" />
        </mxCell>
        <mxCell id="FWz6uTybGzVtUew7Glcn-35" value="" style="endArrow=classic;html=1;rounded=0;" edge="1" parent="1">
          <mxGeometry width="50" height="50" relative="1" as="geometry">
            <mxPoint x="385" y="332" as="sourcePoint" />
            <mxPoint x="297" y="332" as="targetPoint" />
            <Array as="points">
              <mxPoint x="352" y="332" />
              <mxPoint x="319" y="332" />
            </Array>
          </mxGeometry>
        </mxCell>
        <mxCell id="FWz6uTybGzVtUew7Glcn-36" value="" style="ellipse;whiteSpace=wrap;html=1;aspect=fixed;" vertex="1" parent="1">
          <mxGeometry x="325" y="322" width="20" height="20" as="geometry" />
        </mxCell>
        <mxCell id="FWz6uTybGzVtUew7Glcn-37" value="&lt;font style=&quot;font-size: 10px;&quot;&gt;8.2&lt;/font&gt;" style="text;html=1;strokeColor=none;fillColor=none;align=center;verticalAlign=middle;whiteSpace=wrap;rounded=0;" vertex="1" parent="1">
          <mxGeometry x="320" y="322" width="30" height="20" as="geometry" />
        </mxCell>
        <mxCell id="FWz6uTybGzVtUew7Glcn-38" value="" style="endArrow=classic;html=1;rounded=0;" edge="1" parent="1">
          <mxGeometry width="50" height="50" relative="1" as="geometry">
            <mxPoint x="203" y="375" as="sourcePoint" />
            <mxPoint x="120" y="315" as="targetPoint" />
            <Array as="points">
              <mxPoint x="170" y="375" />
              <mxPoint x="120" y="375" />
            </Array>
          </mxGeometry>
        </mxCell>
        <mxCell id="FWz6uTybGzVtUew7Glcn-39" value="" style="ellipse;whiteSpace=wrap;html=1;aspect=fixed;" vertex="1" parent="1">
          <mxGeometry x="143" y="365" width="20" height="20" as="geometry" />
        </mxCell>
        <mxCell id="FWz6uTybGzVtUew7Glcn-40" value="&lt;font style=&quot;font-size: 10px;&quot;&gt;9&lt;/font&gt;" style="text;html=1;strokeColor=none;fillColor=none;align=center;verticalAlign=middle;whiteSpace=wrap;rounded=0;" vertex="1" parent="1">
          <mxGeometry x="138" y="365" width="30" height="20" as="geometry" />
        </mxCell>
        <mxCell id="FWz6uTybGzVtUew7Glcn-41" value="" style="endArrow=classic;html=1;rounded=0;" edge="1" parent="1">
          <mxGeometry width="50" height="50" relative="1" as="geometry">
            <mxPoint x="418" y="90" as="sourcePoint" />
            <mxPoint x="297" y="79" as="targetPoint" />
            <Array as="points">
              <mxPoint x="418" y="79" />
            </Array>
          </mxGeometry>
        </mxCell>
        <mxCell id="FWz6uTybGzVtUew7Glcn-42" value="User&#39;s FQTV, Points,Tier, past travel and bookings, nominees, entitlements are returned" style="text;html=1;strokeColor=none;fillColor=none;align=left;verticalAlign=top;whiteSpace=wrap;rounded=0;fontSize=8;" vertex="1" parent="1">
          <mxGeometry x="309.75" y="33" width="120.25" height="52" as="geometry" />
        </mxCell>
        <mxCell id="FWz6uTybGzVtUew7Glcn-43" value="" style="ellipse;whiteSpace=wrap;html=1;aspect=fixed;" vertex="1" parent="1">
          <mxGeometry x="340" y="68" width="20" height="20" as="geometry" />
        </mxCell>
        <mxCell id="FWz6uTybGzVtUew7Glcn-44" value="&lt;font style=&quot;font-size: 10px;&quot;&gt;3&lt;/font&gt;" style="text;html=1;strokeColor=none;fillColor=none;align=center;verticalAlign=middle;whiteSpace=wrap;rounded=0;" vertex="1" parent="1">
          <mxGeometry x="335" y="68" width="30" height="20" as="geometry" />
        </mxCell>
        <mxCell id="FWz6uTybGzVtUew7Glcn-45" value="Assumptions:&lt;br&gt;1. RM will create different SSR fee for different tier roles&lt;br&gt;2. Different Roles will be created for different tier in Navitaire&lt;br&gt;&amp;nbsp; &amp;nbsp;&amp;nbsp;" style="text;html=1;strokeColor=none;fillColor=none;align=left;verticalAlign=top;whiteSpace=wrap;rounded=0;fontSize=8;" vertex="1" parent="1">
          <mxGeometry x="91" y="565" width="275.25" height="117" as="geometry" />
        </mxCell>
        <mxCell id="FWz6uTybGzVtUew7Glcn-46" value="The flights and fare and discounted SSR charges and prospective points are returned" style="text;html=1;strokeColor=none;fillColor=none;align=left;verticalAlign=top;whiteSpace=wrap;rounded=0;fontSize=8;" vertex="1" parent="1">
          <mxGeometry x="117" y="385" width="79.25" height="48" as="geometry" />
        </mxCell>
        <mxCell id="FWz6uTybGzVtUew7Glcn-47" value="Flights, Fare and disc prices for adds, prospective points are returned" style="text;html=1;strokeColor=none;fillColor=none;align=left;verticalAlign=top;whiteSpace=wrap;rounded=0;fontSize=8;" vertex="1" parent="1">
          <mxGeometry x="290.38" y="340" width="109.25" height="18" as="geometry" />
        </mxCell>
        <mxCell id="FWz6uTybGzVtUew7Glcn-48" value="SSR prices will be per the role driven by the tier&amp;nbsp;&amp;nbsp;" style="text;html=1;strokeColor=none;fillColor=none;align=left;verticalAlign=top;whiteSpace=wrap;rounded=0;fontSize=8;" vertex="1" parent="1">
          <mxGeometry x="537" y="177" width="64" height="33" as="geometry" />
        </mxCell>
        <mxCell id="FWz6uTybGzVtUew7Glcn-49" value="" style="endArrow=classic;html=1;rounded=0;" edge="1" parent="1">
          <mxGeometry width="50" height="50" relative="1" as="geometry">
            <mxPoint x="398.63" y="255.75" as="sourcePoint" />
            <mxPoint x="399" y="166" as="targetPoint" />
          </mxGeometry>
        </mxCell>
        <mxCell id="FWz6uTybGzVtUew7Glcn-50" value="" style="ellipse;whiteSpace=wrap;html=1;aspect=fixed;" vertex="1" parent="1">
          <mxGeometry x="389" y="190" width="20" height="20" as="geometry" />
        </mxCell>
        <mxCell id="FWz6uTybGzVtUew7Glcn-51" value="&lt;font style=&quot;font-size: 9px;&quot;&gt;8.1&lt;/font&gt;" style="text;html=1;strokeColor=none;fillColor=none;align=center;verticalAlign=middle;whiteSpace=wrap;rounded=0;" vertex="1" parent="1">
          <mxGeometry x="384" y="189" width="30" height="20" as="geometry" />
        </mxCell>
        <mxCell id="FWz6uTybGzVtUew7Glcn-52" value="Prospective Points for fares and addons earning are calculated" style="text;html=1;strokeColor=none;fillColor=none;align=left;verticalAlign=top;whiteSpace=wrap;rounded=0;fontSize=8;" vertex="1" parent="1">
          <mxGeometry x="413.75" y="181" width="82.75" height="33" as="geometry" />
        </mxCell>
        <mxCell id="NL5u4yjRlKbhjP1L-FFy-1" value="User goes to My booking&amp;nbsp;" style="text;html=1;strokeColor=none;fillColor=none;align=left;verticalAlign=top;whiteSpace=wrap;rounded=0;fontSize=8;" vertex="1" parent="1">
          <mxGeometry x="140" y="216" width="76.5" height="38.5" as="geometry" />
        </mxCell>
      </root>
    </mxGraphModel>
  </diagram>
  <diagram id="AfZv9kMVhiGQ17q7TEsu" name="Book">
    <mxGraphModel dx="1034" dy="446" grid="1" gridSize="10" guides="1" tooltips="1" connect="1" arrows="1" fold="1" page="1" pageScale="1" pageWidth="850" pageHeight="1100" math="0" shadow="0">
      <root>
        <mxCell id="0" />
        <mxCell id="1" parent="0" />
        <mxCell id="UvW0mz0MAAxjkSJ2-FLB-1" value="" style="verticalLabelPosition=bottom;html=1;verticalAlign=top;align=center;strokeColor=none;fillColor=#00BEF2;shape=mxgraph.azure.user;" vertex="1" parent="1">
          <mxGeometry x="8" y="249" width="30" height="20" as="geometry" />
        </mxCell>
        <mxCell id="UvW0mz0MAAxjkSJ2-FLB-2" value="" style="rounded=0;whiteSpace=wrap;html=1;" vertex="1" parent="1">
          <mxGeometry x="227" y="119" width="60" height="330" as="geometry" />
        </mxCell>
        <mxCell id="UvW0mz0MAAxjkSJ2-FLB-3" value="" style="verticalLabelPosition=bottom;html=1;verticalAlign=top;align=center;strokeColor=none;fillColor=#00BEF2;shape=mxgraph.azure.website_generic;pointerEvents=1;" vertex="1" parent="1">
          <mxGeometry x="86" y="237.75" width="50" height="42.5" as="geometry" />
        </mxCell>
        <mxCell id="UvW0mz0MAAxjkSJ2-FLB-4" value="" style="sketch=0;points=[[0,0,0],[0.25,0,0],[0.5,0,0],[0.75,0,0],[1,0,0],[0,1,0],[0.25,1,0],[0.5,1,0],[0.75,1,0],[1,1,0],[0,0.25,0],[0,0.5,0],[0,0.75,0],[1,0.25,0],[1,0.5,0],[1,0.75,0]];outlineConnect=0;fontColor=#232F3E;fillColor=#E7157B;strokeColor=#ffffff;dashed=0;verticalLabelPosition=bottom;verticalAlign=top;align=center;html=1;fontSize=12;fontStyle=0;aspect=fixed;shape=mxgraph.aws4.resourceIcon;resIcon=mxgraph.aws4.api_gateway;" vertex="1" parent="1">
          <mxGeometry x="238" y="275" width="38" height="38" as="geometry" />
        </mxCell>
        <mxCell id="UvW0mz0MAAxjkSJ2-FLB-5" value="" style="endArrow=classic;html=1;rounded=0;" edge="1" parent="1">
          <mxGeometry width="50" height="50" relative="1" as="geometry">
            <mxPoint x="48" y="266.75" as="sourcePoint" />
            <mxPoint x="78" y="267" as="targetPoint" />
          </mxGeometry>
        </mxCell>
        <mxCell id="UvW0mz0MAAxjkSJ2-FLB-7" value="" style="endArrow=classic;html=1;rounded=0;" edge="1" parent="1">
          <mxGeometry width="50" height="50" relative="1" as="geometry">
            <mxPoint x="132" y="290" as="sourcePoint" />
            <mxPoint x="215" y="311" as="targetPoint" />
            <Array as="points">
              <mxPoint x="132" y="311" />
            </Array>
          </mxGeometry>
        </mxCell>
        <mxCell id="UvW0mz0MAAxjkSJ2-FLB-8" value="" style="ellipse;whiteSpace=wrap;html=1;aspect=fixed;" vertex="1" parent="1">
          <mxGeometry x="159" y="298" width="20" height="20" as="geometry" />
        </mxCell>
        <mxCell id="UvW0mz0MAAxjkSJ2-FLB-9" value="&lt;font style=&quot;font-size: 10px;&quot;&gt;9&lt;/font&gt;" style="text;html=1;strokeColor=none;fillColor=none;align=center;verticalAlign=middle;whiteSpace=wrap;rounded=0;" vertex="1" parent="1">
          <mxGeometry x="154" y="298" width="30" height="20" as="geometry" />
        </mxCell>
        <mxCell id="UvW0mz0MAAxjkSJ2-FLB-10" value="&lt;font style=&quot;font-size: 10px;&quot;&gt;LMS Services&lt;/font&gt;" style="rounded=0;whiteSpace=wrap;html=1;" vertex="1" parent="1">
          <mxGeometry x="396" y="127" width="99" height="68" as="geometry" />
        </mxCell>
        <mxCell id="UvW0mz0MAAxjkSJ2-FLB-11" value="&lt;font style=&quot;font-size: 10px;&quot;&gt;Skyplus Services&lt;/font&gt;" style="rounded=0;whiteSpace=wrap;html=1;" vertex="1" parent="1">
          <mxGeometry x="396" y="267" width="99" height="72" as="geometry" />
        </mxCell>
        <mxCell id="UvW0mz0MAAxjkSJ2-FLB-12" value="&lt;font style=&quot;font-size: 10px;&quot;&gt;1N API/Services&lt;/font&gt;" style="rounded=0;whiteSpace=wrap;html=1;" vertex="1" parent="1">
          <mxGeometry x="594" y="127" width="121" height="68" as="geometry" />
        </mxCell>
        <mxCell id="UvW0mz0MAAxjkSJ2-FLB-13" value="" style="endArrow=classic;html=1;rounded=0;" edge="1" parent="1">
          <mxGeometry width="50" height="50" relative="1" as="geometry">
            <mxPoint x="648" y="199.25" as="sourcePoint" />
            <mxPoint x="500" y="301" as="targetPoint" />
            <Array as="points">
              <mxPoint x="648" y="221.25" />
              <mxPoint x="648" y="257" />
              <mxPoint x="580" y="257" />
              <mxPoint x="580" y="299" />
            </Array>
          </mxGeometry>
        </mxCell>
        <mxCell id="UvW0mz0MAAxjkSJ2-FLB-17" value="Assumptions:&lt;br&gt;1. RM will create different SSR fee for different tier roles&lt;br&gt;2. Different Roles will be created for different tier in Navitaire&lt;br&gt;&amp;nbsp; &amp;nbsp;&amp;nbsp;" style="text;html=1;strokeColor=none;fillColor=none;align=left;verticalAlign=top;whiteSpace=wrap;rounded=0;fontSize=8;" vertex="1" parent="1">
          <mxGeometry x="91" y="598" width="275.25" height="117" as="geometry" />
        </mxCell>
        <mxCell id="UvW0mz0MAAxjkSJ2-FLB-18" value="User selects a flight to book" style="text;html=1;strokeColor=none;fillColor=none;align=left;verticalAlign=top;whiteSpace=wrap;rounded=0;fontSize=8;" vertex="1" parent="1">
          <mxGeometry x="125.88" y="318" width="86.25" height="31" as="geometry" />
        </mxCell>
        <mxCell id="UvW0mz0MAAxjkSJ2-FLB-20" value="" style="endArrow=classic;html=1;rounded=0;" edge="1" parent="1">
          <mxGeometry width="50" height="50" relative="1" as="geometry">
            <mxPoint x="290" y="393" as="sourcePoint" />
            <mxPoint x="440" y="349" as="targetPoint" />
            <Array as="points">
              <mxPoint x="440" y="393" />
            </Array>
          </mxGeometry>
        </mxCell>
        <mxCell id="UvW0mz0MAAxjkSJ2-FLB-21" value="" style="ellipse;whiteSpace=wrap;html=1;aspect=fixed;" vertex="1" parent="1">
          <mxGeometry x="336" y="383" width="20" height="20" as="geometry" />
        </mxCell>
        <mxCell id="UvW0mz0MAAxjkSJ2-FLB-22" value="&lt;font style=&quot;font-size: 10px;&quot;&gt;10&lt;/font&gt;" style="text;html=1;strokeColor=none;fillColor=none;align=center;verticalAlign=middle;whiteSpace=wrap;rounded=0;" vertex="1" parent="1">
          <mxGeometry x="331" y="383" width="30" height="20" as="geometry" />
        </mxCell>
        <mxCell id="UvW0mz0MAAxjkSJ2-FLB-23" value="Make a booking" style="text;html=1;strokeColor=none;fillColor=none;align=left;verticalAlign=top;whiteSpace=wrap;rounded=0;fontSize=8;" vertex="1" parent="1">
          <mxGeometry x="360" y="365.5" width="36" height="18" as="geometry" />
        </mxCell>
        <mxCell id="UvW0mz0MAAxjkSJ2-FLB-24" value="" style="endArrow=classic;html=1;rounded=0;" edge="1" parent="1">
          <mxGeometry width="50" height="50" relative="1" as="geometry">
            <mxPoint x="500" y="279" as="sourcePoint" />
            <mxPoint x="627" y="209" as="targetPoint" />
            <Array as="points">
              <mxPoint x="528" y="279" />
              <mxPoint x="560" y="229" />
              <mxPoint x="627" y="229" />
            </Array>
          </mxGeometry>
        </mxCell>
        <mxCell id="UvW0mz0MAAxjkSJ2-FLB-25" value="Make a booking" style="text;html=1;strokeColor=none;fillColor=none;align=left;verticalAlign=top;whiteSpace=wrap;rounded=0;fontSize=8;" vertex="1" parent="1">
          <mxGeometry x="560.38" y="193" width="51.62" height="18" as="geometry" />
        </mxCell>
        <mxCell id="UvW0mz0MAAxjkSJ2-FLB-26" value="" style="ellipse;whiteSpace=wrap;html=1;aspect=fixed;" vertex="1" parent="1">
          <mxGeometry x="564" y="219" width="20" height="20" as="geometry" />
        </mxCell>
        <mxCell id="UvW0mz0MAAxjkSJ2-FLB-27" value="&lt;font style=&quot;font-size: 10px;&quot;&gt;12&lt;/font&gt;" style="text;html=1;strokeColor=none;fillColor=none;align=center;verticalAlign=middle;whiteSpace=wrap;rounded=0;" vertex="1" parent="1">
          <mxGeometry x="559" y="219" width="30" height="20" as="geometry" />
        </mxCell>
        <mxCell id="UvW0mz0MAAxjkSJ2-FLB-28" value="" style="ellipse;whiteSpace=wrap;html=1;aspect=fixed;" vertex="1" parent="1">
          <mxGeometry x="612" y="247" width="20" height="20" as="geometry" />
        </mxCell>
        <mxCell id="UvW0mz0MAAxjkSJ2-FLB-29" value="&lt;font style=&quot;font-size: 10px;&quot;&gt;13&lt;/font&gt;" style="text;html=1;strokeColor=none;fillColor=none;align=center;verticalAlign=middle;whiteSpace=wrap;rounded=0;" vertex="1" parent="1">
          <mxGeometry x="607" y="247" width="30" height="20" as="geometry" />
        </mxCell>
        <mxCell id="UvW0mz0MAAxjkSJ2-FLB-30" value="Booking PNR is returned" style="text;html=1;strokeColor=none;fillColor=none;align=left;verticalAlign=top;whiteSpace=wrap;rounded=0;fontSize=8;" vertex="1" parent="1">
          <mxGeometry x="650" y="231" width="70" height="18" as="geometry" />
        </mxCell>
        <mxCell id="UvW0mz0MAAxjkSJ2-FLB-31" value="" style="endArrow=classic;html=1;rounded=0;" edge="1" parent="1">
          <mxGeometry width="50" height="50" relative="1" as="geometry">
            <mxPoint x="460" y="349" as="sourcePoint" />
            <mxPoint x="297" y="437" as="targetPoint" />
            <Array as="points">
              <mxPoint x="460" y="437" />
            </Array>
          </mxGeometry>
        </mxCell>
        <mxCell id="UvW0mz0MAAxjkSJ2-FLB-32" value="Booking PNR is returned" style="text;html=1;strokeColor=none;fillColor=none;align=left;verticalAlign=top;whiteSpace=wrap;rounded=0;fontSize=8;" vertex="1" parent="1">
          <mxGeometry x="473" y="385.5" width="49" height="38.5" as="geometry" />
        </mxCell>
        <mxCell id="UvW0mz0MAAxjkSJ2-FLB-33" value="" style="ellipse;whiteSpace=wrap;html=1;aspect=fixed;" vertex="1" parent="1">
          <mxGeometry x="450" y="395" width="20" height="20" as="geometry" />
        </mxCell>
        <mxCell id="UvW0mz0MAAxjkSJ2-FLB-34" value="&lt;font style=&quot;font-size: 10px;&quot;&gt;15&lt;/font&gt;" style="text;html=1;strokeColor=none;fillColor=none;align=center;verticalAlign=middle;whiteSpace=wrap;rounded=0;" vertex="1" parent="1">
          <mxGeometry x="445" y="395" width="30" height="20" as="geometry" />
        </mxCell>
        <mxCell id="UvW0mz0MAAxjkSJ2-FLB-44" value="" style="endArrow=classic;html=1;rounded=0;" edge="1" parent="1">
          <mxGeometry width="50" height="50" relative="1" as="geometry">
            <mxPoint x="460" y="262" as="sourcePoint" />
            <mxPoint x="460" y="201" as="targetPoint" />
          </mxGeometry>
        </mxCell>
        <mxCell id="UvW0mz0MAAxjkSJ2-FLB-45" value="Prospective points on are updated with newer value" style="text;html=1;strokeColor=none;fillColor=none;align=left;verticalAlign=top;whiteSpace=wrap;rounded=0;fontSize=8;" vertex="1" parent="1">
          <mxGeometry x="472" y="197" width="68" height="43" as="geometry" />
        </mxCell>
        <mxCell id="UvW0mz0MAAxjkSJ2-FLB-46" style="edgeStyle=orthogonalEdgeStyle;rounded=0;orthogonalLoop=1;jettySize=auto;html=1;exitX=0.5;exitY=1;exitDx=0;exitDy=0;" edge="1" parent="1" source="UvW0mz0MAAxjkSJ2-FLB-45" target="UvW0mz0MAAxjkSJ2-FLB-45">
          <mxGeometry relative="1" as="geometry" />
        </mxCell>
        <mxCell id="UvW0mz0MAAxjkSJ2-FLB-47" value="" style="ellipse;whiteSpace=wrap;html=1;aspect=fixed;" vertex="1" parent="1">
          <mxGeometry x="450" y="221" width="20" height="20" as="geometry" />
        </mxCell>
        <mxCell id="UvW0mz0MAAxjkSJ2-FLB-48" value="&lt;font style=&quot;font-size: 10px;&quot;&gt;14&lt;/font&gt;" style="text;html=1;strokeColor=none;fillColor=none;align=center;verticalAlign=middle;whiteSpace=wrap;rounded=0;" vertex="1" parent="1">
          <mxGeometry x="445" y="221" width="30" height="20" as="geometry" />
        </mxCell>
        <mxCell id="UvW0mz0MAAxjkSJ2-FLB-49" value="&lt;font style=&quot;font-size: 10px;&quot;&gt;Payment Gateway&lt;/font&gt;" style="rounded=0;whiteSpace=wrap;html=1;" vertex="1" parent="1">
          <mxGeometry x="608" y="297.5" width="82" height="68" as="geometry" />
        </mxCell>
        <mxCell id="UvW0mz0MAAxjkSJ2-FLB-50" value="" style="endArrow=classic;html=1;rounded=0;" edge="1" parent="1">
          <mxGeometry width="50" height="50" relative="1" as="geometry">
            <mxPoint x="508" y="331" as="sourcePoint" />
            <mxPoint x="600" y="331" as="targetPoint" />
          </mxGeometry>
        </mxCell>
        <mxCell id="UvW0mz0MAAxjkSJ2-FLB-51" value="makePayment&amp;nbsp;" style="text;html=1;strokeColor=none;fillColor=none;align=left;verticalAlign=top;whiteSpace=wrap;rounded=0;fontSize=8;" vertex="1" parent="1">
          <mxGeometry x="536" y="337.5" width="49" height="38.5" as="geometry" />
        </mxCell>
        <mxCell id="UvW0mz0MAAxjkSJ2-FLB-52" value="" style="ellipse;whiteSpace=wrap;html=1;aspect=fixed;" vertex="1" parent="1">
          <mxGeometry x="541" y="321" width="20" height="20" as="geometry" />
        </mxCell>
        <mxCell id="UvW0mz0MAAxjkSJ2-FLB-53" value="&lt;font style=&quot;font-size: 10px;&quot;&gt;11&lt;/font&gt;" style="text;html=1;strokeColor=none;fillColor=none;align=center;verticalAlign=middle;whiteSpace=wrap;rounded=0;" vertex="1" parent="1">
          <mxGeometry x="536" y="321" width="30" height="20" as="geometry" />
        </mxCell>
        <mxCell id="UvW0mz0MAAxjkSJ2-FLB-54" value="" style="shape=image;html=1;verticalAlign=top;verticalLabelPosition=bottom;labelBackgroundColor=#ffffff;imageAspect=0;aspect=fixed;image=https://cdn4.iconfinder.com/data/icons/aiga-symbol-signs/612/aiga_air_transportation_bg-128.png" vertex="1" parent="1">
          <mxGeometry x="172" y="395" width="37" height="37" as="geometry" />
        </mxCell>
        <mxCell id="UvW0mz0MAAxjkSJ2-FLB-55" value="" style="endArrow=classic;html=1;rounded=0;" edge="1" parent="1">
          <mxGeometry width="50" height="50" relative="1" as="geometry">
            <mxPoint x="88" y="290" as="sourcePoint" />
            <mxPoint x="160" y="419" as="targetPoint" />
            <Array as="points">
              <mxPoint x="88" y="419" />
            </Array>
          </mxGeometry>
        </mxCell>
        <mxCell id="UvW0mz0MAAxjkSJ2-FLB-56" value="User boards the flight&amp;nbsp;" style="text;html=1;strokeColor=none;fillColor=none;align=left;verticalAlign=top;whiteSpace=wrap;rounded=0;fontSize=8;" vertex="1" parent="1">
          <mxGeometry x="27" y="361" width="55.13" height="27" as="geometry" />
        </mxCell>
        <mxCell id="UvW0mz0MAAxjkSJ2-FLB-57" value="" style="ellipse;whiteSpace=wrap;html=1;aspect=fixed;" vertex="1" parent="1">
          <mxGeometry x="78" y="369" width="20" height="20" as="geometry" />
        </mxCell>
        <mxCell id="UvW0mz0MAAxjkSJ2-FLB-58" value="&lt;font style=&quot;font-size: 10px;&quot;&gt;16&lt;/font&gt;" style="text;html=1;strokeColor=none;fillColor=none;align=center;verticalAlign=middle;whiteSpace=wrap;rounded=0;" vertex="1" parent="1">
          <mxGeometry x="73" y="369" width="30" height="20" as="geometry" />
        </mxCell>
        <mxCell id="UvW0mz0MAAxjkSJ2-FLB-59" value="&lt;span style=&quot;font-size: 10px;&quot;&gt;PNR Update&amp;nbsp; Event Service&lt;/span&gt;" style="rounded=0;whiteSpace=wrap;html=1;" vertex="1" parent="1">
          <mxGeometry x="716" y="308" width="74" height="72" as="geometry" />
        </mxCell>
        <mxCell id="UvW0mz0MAAxjkSJ2-FLB-60" value="" style="endArrow=classic;html=1;rounded=0;" edge="1" parent="1">
          <mxGeometry width="50" height="50" relative="1" as="geometry">
            <mxPoint x="700" y="199" as="sourcePoint" />
            <mxPoint x="748" y="305" as="targetPoint" />
            <Array as="points">
              <mxPoint x="700" y="219" />
              <mxPoint x="750" y="219" />
            </Array>
          </mxGeometry>
        </mxCell>
        <mxCell id="UvW0mz0MAAxjkSJ2-FLB-61" value="" style="ellipse;whiteSpace=wrap;html=1;aspect=fixed;" vertex="1" parent="1">
          <mxGeometry x="739" y="239" width="20" height="20" as="geometry" />
        </mxCell>
        <mxCell id="UvW0mz0MAAxjkSJ2-FLB-62" value="&lt;font style=&quot;font-size: 10px;&quot;&gt;17&lt;/font&gt;" style="text;html=1;strokeColor=none;fillColor=none;align=center;verticalAlign=middle;whiteSpace=wrap;rounded=0;" vertex="1" parent="1">
          <mxGeometry x="734" y="239" width="30" height="20" as="geometry" />
        </mxCell>
        <mxCell id="UvW0mz0MAAxjkSJ2-FLB-63" value="Flown event is recieved" style="text;html=1;strokeColor=none;fillColor=none;align=left;verticalAlign=top;whiteSpace=wrap;rounded=0;fontSize=8;" vertex="1" parent="1">
          <mxGeometry x="764" y="225" width="36" height="54" as="geometry" />
        </mxCell>
        <mxCell id="UvW0mz0MAAxjkSJ2-FLB-64" value="" style="endArrow=classic;html=1;rounded=0;" edge="1" parent="1">
          <mxGeometry width="50" height="50" relative="1" as="geometry">
            <mxPoint x="750" y="400" as="sourcePoint" />
            <mxPoint x="430" y="110" as="targetPoint" />
            <Array as="points">
              <mxPoint x="750" y="410" />
              <mxPoint x="780" y="410" />
              <mxPoint x="810" y="410" />
              <mxPoint x="810" y="44" />
              <mxPoint x="656" y="44" />
              <mxPoint x="430" y="40" />
            </Array>
          </mxGeometry>
        </mxCell>
        <mxCell id="UvW0mz0MAAxjkSJ2-FLB-65" value="Points on hold are Credited (PNR and FFR#)&lt;div&gt;PNR is marked as claimed&lt;/div&gt;" style="text;html=1;strokeColor=none;fillColor=none;align=left;verticalAlign=top;whiteSpace=wrap;rounded=0;fontSize=8;" vertex="1" parent="1">
          <mxGeometry x="630" y="53" width="113.25" height="57" as="geometry" />
        </mxCell>
        <mxCell id="UvW0mz0MAAxjkSJ2-FLB-66" value="" style="ellipse;whiteSpace=wrap;html=1;aspect=fixed;" vertex="1" parent="1">
          <mxGeometry x="644" y="33" width="20" height="20" as="geometry" />
        </mxCell>
        <mxCell id="UvW0mz0MAAxjkSJ2-FLB-67" value="&lt;font style=&quot;font-size: 10px;&quot;&gt;18&lt;/font&gt;" style="text;html=1;strokeColor=none;fillColor=none;align=center;verticalAlign=middle;whiteSpace=wrap;rounded=0;" vertex="1" parent="1">
          <mxGeometry x="639" y="33" width="30" height="20" as="geometry" />
        </mxCell>
      </root>
    </mxGraphModel>
  </diagram>
</mxfile>
